# xmcd CD database file generated by OrangeCD 6.5
#
# Track frame offsets:
#	150
#	11735
#	22337
#	34978
#	47335
#	59668
#	71314
#	83986
#	97508
#	111063
#	130431
#	142556
#	154313
#	168400
#	182808
#
# Disc length: 2770 seconds
#
# Revision: 12
# Processed by: cddbd v1.5.2PL0 Copyright (c) Steve Scherf et al.
# Submitted via: OrangeCD 6.5
#
DISCID=c30ad00f
DTITLE=Various Artist - Mojo Presents: Good Times, Bad Times
DYEAR=2010
DGENRE=MOJO
TTITLE0=Li'l Millet and His Creoles - Rich Woman
TTITLE1=Junior Parker - Mystery Train
TTITLE2=Bo Diddley - Pretty Thing
TTITLE3=Jimmy Reed - Big Boss Man
TTITLE4=Big Joe Williams - Baby Please Don't Go
TTITLE5=Little Walter - Mellow Down Easy
TTITLE6=Muddy Waters - (I'm Your) Hoochie Coochie Man
TTITLE7=Big Bill Broonzy - Key To The Highway
TTITLE8=John Lee Hooker - I'm Gonna Kill That Woman
TTITLE9=Son House - Death Letter Blues
TTITLE10=Slim Harpo - I Got Love If You Want It
TTITLE11=John Lee Hooker - Crawling King Snake
TTITLE12=Memphis Minnie - When The Levee Breaks
TTITLE13=Mississippi Sheiks - Sitting On Top Of The World
TTITLE14=Leadbelly - The Bourgeois Blues
EXTD=
EXTT0=
EXTT1=
EXTT2=
EXTT3=
EXTT4=
EXTT5=
EXTT6=
EXTT7=
EXTT8=
EXTT9=
EXTT10=
EXTT11=
EXTT12=
EXTT13=
EXTT14=
PLAYORDER=
